<svg width="24" height="24" viewBox="0 0 24 24" fill="none" xmlns="http://www.w3.org/2000/svg">
<path d="M7.75977 7.25005C7.75977 5.21005 9.65977 3.55005 11.9998 3.55005C14.3398 3.55005 16.2398 5.20005 16.2398 7.25005" stroke="white" stroke-miterlimit="10"/>
<path d="M20.4597 19.89L18.9397 9.21004C18.9397 9.19004 18.9397 9.16004 18.9397 9.14004V7.66004C18.9397 7.39004 18.7197 7.17004 18.4497 7.17004H5.55969C5.28969 7.17004 5.06969 7.39004 5.06969 7.66004V9.14004C5.06969 9.16004 5.06969 9.19004 5.06969 9.21004L3.53969 19.89C3.49969 20.18 3.72969 20.45 4.01969 20.45H19.9797C20.2797 20.45 20.5097 20.19 20.4597 19.89Z" stroke="white" stroke-miterlimit="10"/>
</svg>
