<svg width="24" height="24" viewBox="0 0 24 24" fill="none" xmlns="http://www.w3.org/2000/svg">
<path d="M10.5 11.5H4.5C3.95 11.5 3.5 11.05 3.5 10.5V4.5C3.5 3.95 3.95 3.5 4.5 3.5H10.51C11.06 3.5 11.51 3.95 11.51 4.5V10.51C11.5 11.05 11.05 11.5 10.5 11.5Z" fill="white"/>
<path d="M19.5 11.5H13.5C12.95 11.5 12.5 11.05 12.5 10.5V4.5C12.5 3.95 12.95 3.5 13.5 3.5H19.51C20.06 3.5 20.51 3.95 20.51 4.5V10.51C20.5 11.05 20.05 11.5 19.5 11.5Z" fill="white"/>
<path d="M10.5 20.5H4.5C3.95 20.5 3.5 20.05 3.5 19.5V13.5C3.5 12.95 3.95 12.5 4.5 12.5H10.51C11.06 12.5 11.51 12.95 11.51 13.5V19.51C11.5 20.05 11.05 20.5 10.5 20.5Z" fill="white"/>
<path d="M19.5 20.5H13.5C12.95 20.5 12.5 20.05 12.5 19.5V13.5C12.5 12.95 12.95 12.5 13.5 12.5H19.51C20.06 12.5 20.51 12.95 20.51 13.5V19.51C20.5 20.05 20.05 20.5 19.5 20.5Z" fill="white"/>
</svg>
